<svg xmlns="http://www.w3.org/2000/svg" viewBox="0 0 32 32" role="img" aria-label="Proton Sync">
  <defs>
    <linearGradient id="pd-top" x1="2" y1="2" x2="30" y2="18" gradientUnits="userSpaceOnUse">
      <stop offset="0%" stop-color="#6d4aff"/>
      <stop offset="100%" stop-color="#eb508d"/>
    </linearGradient>
    <linearGradient id="pd-bottom" x1="0" y1="16" x2="28" y2="30" gradientUnits="userSpaceOnUse">
      <stop offset="0%" stop-color="#7341ff"/>
      <stop offset="45%" stop-color="#b487ff"/>
      <stop offset="100%" stop-color="#eb508d"/>
    </linearGradient>
  </defs>
  <g transform="translate(0 1.25) scale(1.333333)">
    <path fill="url(#pd-top)" d="M24 6.595v12.79c0 1.36-1.11 2.462-2.482 2.462h-1.62V9a2.925 2.925 0 0 0-2.93-2.914l-9.42.053a.943.943 0 0 1-.55-.172L4.905 4.493a2.918 2.918 0 0 0-1.694-.536H.1A2.47 2.47 0 0 1 2.482 2.15h4.657c.47 0 .928.148 1.305.424l1.559 1.134c.38.276.837.424 1.308.424h10.207A2.471 2.471 0 0 1 24 6.595z"/>
    <path fill="url(#pd-bottom)" d="M18.897 9v12.85H2.482A2.471 2.471 0 0 1 0 19.387V4.957h3.21c.4 0 .792.122 1.118.353l2.095 1.476a1.94 1.94 0 0 0 1.13.353l9.402-.052A1.922 1.922 0 0 1 18.897 9z"/>
    <path fill="none" stroke="#f0f1fa" stroke-width="1.35" stroke-linecap="round" stroke-linejoin="round" d="M17 7 L20 3.5 L23 7 M20 7 V14.5"/>
  </g>
</svg>
